<?xml version="1.0" encoding="UTF-8"?>
<svg xmlns="http://www.w3.org/2000/svg" xmlns:xlink="http://www.w3.org/1999/xlink" width="128px" height="128px" viewBox="0 0 128 128" version="1.1">
<g id="surface1">
<path style=" stroke:none;fill-rule:nonzero;fill:rgb(255%,255%,255%);fill-opacity:1;" d="M 59 13.324219 C 58.761719 13.351562 58 13.4375 57.3125 13.5 C 47.539062 14.523438 37.914062 18.664062 30.0625 25.238281 C 28.613281 26.4375 25.3125 29.738281 24.113281 31.1875 C 17.613281 38.949219 13.8125 47.664062 12.414062 57.976562 C 12.101562 60.261719 12.101562 67.988281 12.414062 70.273438 C 13.8125 80.585938 17.613281 89.300781 24.113281 97.0625 C 25.3125 98.511719 28.613281 101.8125 30.0625 103.011719 C 37.824219 109.511719 46.539062 113.3125 56.851562 114.710938 C 59.136719 115.023438 66.863281 115.023438 69.148438 114.710938 C 79.460938 113.3125 88.175781 109.511719 95.9375 103.011719 C 97.386719 101.8125 100.6875 98.511719 101.886719 97.0625 C 108.386719 89.300781 112.1875 80.585938 113.585938 70.273438 C 113.898438 67.988281 113.898438 60.261719 113.585938 57.976562 C 112.1875 47.664062 108.386719 38.949219 101.886719 31.1875 C 100.6875 29.738281 97.386719 26.4375 95.9375 25.238281 C 88.199219 18.761719 79.398438 14.914062 69.226562 13.550781 C 68.125 13.398438 66.523438 13.335938 63.5625 13.3125 C 61.300781 13.289062 59.238281 13.300781 59 13.324219 Z M 59.625 18.726562 C 59.625 20.1875 59.726562 23.363281 59.863281 26.375 C 59.9375 27.851562 60.023438 29.960938 60.0625 31.0625 C 60.199219 34.960938 60.613281 45.199219 60.675781 46.113281 L 60.738281 47.023438 L 60.175781 46.960938 C 59.863281 46.9375 59.574219 46.863281 59.523438 46.824219 C 59.488281 46.773438 59.398438 45.914062 59.351562 44.898438 C 59.125 40.449219 58.386719 23.1875 58.3125 20.664062 L 58.238281 17.886719 L 58.585938 17.835938 C 58.773438 17.8125 59.085938 17.773438 59.289062 17.761719 L 59.625 17.75 Z M 71.585938 18.425781 C 71.601562 18.4375 71.636719 22.210938 71.675781 26.8125 C 71.726562 31.425781 71.789062 35.5625 71.824219 36.011719 C 71.863281 36.476562 71.851562 36.875 71.789062 36.898438 C 71.738281 36.9375 71.425781 36.9375 71.113281 36.898438 L 70.539062 36.851562 L 70.449219 33.210938 C 70.398438 31.199219 70.335938 28.976562 70.3125 28.25 C 70.210938 26.039062 70.125 18.523438 70.199219 18.335938 C 70.25 18.199219 70.386719 18.1875 70.914062 18.273438 C 71.273438 18.351562 71.574219 18.414062 71.585938 18.425781 Z M 42.675781 22.613281 C 42.75 22.726562 43.335938 29.613281 44.0625 38.625 C 44.300781 41.6875 44.539062 44.488281 44.574219 44.835938 C 44.636719 45.476562 44.625 45.5 44.226562 45.75 C 44 45.886719 43.773438 46 43.726562 46 C 43.6875 46 43.613281 45.675781 43.574219 45.273438 C 43.398438 43.648438 42.726562 35.800781 42.25 30.125 C 41.976562 26.789062 41.726562 23.800781 41.6875 23.476562 C 41.625 22.925781 41.636719 22.875 41.960938 22.699219 C 42.363281 22.488281 42.585938 22.449219 42.675781 22.613281 Z M 77.085938 25.125 C 77.4375 25.25 77.476562 25.3125 77.550781 26.023438 C 77.675781 27.273438 77.636719 33.25 77.5 33.25 C 77.136719 33.25 76.386719 32.824219 76.324219 32.585938 C 76.289062 32.4375 76.25 30.664062 76.25 28.648438 C 76.25 24.585938 76.199219 24.824219 77.085938 25.125 Z M 54 25.710938 C 54 26.050781 54.085938 27.914062 54.1875 29.875 C 54.289062 31.835938 54.398438 34.324219 54.449219 35.398438 C 54.539062 37.574219 54.5625 37.5 53.726562 37.550781 C 53.3125 37.5625 53.3125 37.5625 53.289062 36.9375 C 53.261719 36.585938 53.199219 35.5 53.125 34.5 C 53.0625 33.5 52.914062 31.335938 52.8125 29.6875 C 52.710938 28.039062 52.585938 26.398438 52.550781 26.050781 C 52.476562 25.425781 52.488281 25.398438 52.824219 25.273438 C 53.023438 25.199219 53.375 25.136719 53.601562 25.136719 C 54 25.125 54 25.125 54 25.710938 Z M 88.675781 27.425781 L 89.101562 27.601562 L 89.1875 29.273438 C 89.226562 30.1875 89.25 32.164062 89.226562 33.648438 L 89.1875 36.375 L 88.664062 36.113281 L 88.136719 35.863281 L 88.101562 31.710938 C 88.074219 29.425781 88.085938 27.488281 88.113281 27.398438 C 88.164062 27.210938 88.164062 27.210938 88.675781 27.425781 Z M 65.851562 29.0625 C 65.925781 29.136719 66.101562 35.199219 66.113281 38.273438 L 66.125 40.125 L 65.539062 40.039062 C 65.199219 40 64.925781 39.960938 64.914062 39.949219 C 64.875 39.925781 64.5 30.664062 64.5 29.761719 L 64.5 28.835938 L 65.136719 28.914062 C 65.5 28.960938 65.8125 29.023438 65.851562 29.0625 Z M 94.636719 29.949219 C 94.789062 30.125 94.8125 32.863281 94.851562 47.960938 C 94.886719 65.300781 94.886719 65.75 94.664062 65.75 C 94.523438 65.75 94.335938 65.675781 94.226562 65.585938 C 94.039062 65.449219 94.011719 63.9375 93.949219 49.125 C 93.898438 40.148438 93.835938 32 93.800781 31.011719 L 93.726562 29.210938 L 94.085938 29.476562 C 94.300781 29.625 94.539062 29.835938 94.636719 29.949219 Z M 83.425781 32.511719 C 83.488281 32.5625 83.550781 33.273438 83.5625 34.085938 C 83.625 36.851562 83.636719 53.789062 83.574219 53.835938 C 83.550781 53.863281 83.324219 53.800781 83.074219 53.699219 L 82.625 53.511719 L 82.625 32.25 L 82.976562 32.324219 C 83.164062 32.375 83.363281 32.449219 83.425781 32.511719 Z M 48.925781 33.210938 C 48.960938 33.550781 49.023438 34.3125 49.0625 34.9375 C 49.101562 35.550781 49.1875 36.949219 49.261719 38.039062 C 49.414062 40.238281 49.386719 40.375 48.675781 40.375 C 48.300781 40.375 48.25 40.335938 48.199219 39.960938 C 48.074219 39.226562 47.636719 33.074219 47.699219 32.976562 C 47.761719 32.886719 48.414062 32.664062 48.710938 32.636719 C 48.789062 32.625 48.886719 32.886719 48.925781 33.210938 Z M 28.25 36.398438 C 28.386719 37.726562 28.664062 40.5 28.863281 42.5625 C 29.074219 44.625 29.25 46.375 29.25 46.449219 C 29.25 46.601562 28.289062 47.074219 28.1875 46.976562 C 28.125 46.914062 26.875 35.851562 26.875 35.351562 C 26.875 35.050781 27.835938 33.789062 27.960938 33.925781 C 28 33.949219 28.125 35.0625 28.25 36.398438 Z M 77.261719 37.710938 L 77.625 37.925781 L 77.636719 40.625 C 77.648438 42.101562 77.675781 43.75 77.675781 44.289062 C 77.699219 45.414062 77.5625 45.601562 76.886719 45.363281 L 76.5 45.226562 L 76.5 44.148438 C 76.5 43.550781 76.460938 41.8125 76.414062 40.273438 L 76.335938 37.5 L 76.625 37.5 C 76.773438 37.5 77.0625 37.601562 77.261719 37.710938 Z M 33.738281 42.5625 C 33.960938 44.960938 34.324219 49.011719 34.5625 51.5625 L 34.988281 56.1875 L 34.5 56.675781 L 34.023438 57.164062 L 33.9375 56.175781 C 33.886719 55.625 33.636719 53.074219 33.375 50.5 C 33.113281 47.925781 32.738281 44.1875 32.550781 42.199219 L 32.199219 38.601562 L 32.6875 38.148438 C 33.125 37.738281 33.175781 37.726562 33.261719 37.949219 C 33.3125 38.074219 33.523438 40.148438 33.738281 42.5625 Z M 24.375 44.074219 C 24.648438 46.539062 25.375 53.085938 26 58.625 C 26.625 64.164062 27.210938 69.5 27.324219 70.5 C 27.425781 71.5 27.601562 73.011719 27.699219 73.875 C 27.875 75.335938 27.875 75.4375 27.675781 75.585938 C 27.375 75.8125 27.25 75.789062 27.25 75.523438 C 27.25 75.414062 27.136719 74.460938 27 73.4375 C 26.773438 71.726562 26.398438 68.824219 25.5625 62.3125 C 25.386719 61 25.050781 58.386719 24.8125 56.5 C 24.5625 54.613281 24.199219 51.800781 24 50.25 C 23.800781 48.699219 23.460938 46.050781 23.25 44.335938 C 23.023438 42.636719 22.886719 41.125 22.925781 40.960938 C 23.011719 40.625 23.75 39.449219 23.824219 39.523438 C 23.851562 39.5625 24.101562 41.601562 24.375 44.074219 Z M 20.550781 49.460938 C 20.738281 50.960938 21.085938 53.699219 21.324219 55.5625 C 21.5625 57.414062 21.863281 59.726562 22 60.6875 L 22.238281 62.4375 L 21.976562 62.664062 C 21.824219 62.789062 21.675781 62.835938 21.625 62.789062 C 21.574219 62.738281 21.476562 62.238281 21.398438 61.6875 C 21.324219 61.136719 20.863281 57.925781 20.363281 54.5625 L 19.476562 48.4375 L 19.761719 47.585938 C 19.914062 47.125 20.074219 46.75 20.113281 46.75 C 20.164062 46.75 20.351562 47.976562 20.550781 49.460938 Z M 89.175781 47.824219 C 89.351562 48 89.375 48.773438 89.375 54.511719 L 89.375 61 L 89.023438 61 C 88.261719 61 88.273438 61.1875 88.226562 54.085938 L 88.1875 47.625 L 88.585938 47.625 C 88.800781 47.625 89.074219 47.710938 89.175781 47.824219 Z M 61.8125 50.0625 C 64.636719 50.488281 67.101562 51.273438 69.539062 52.523438 C 71.113281 53.335938 71.863281 53.898438 73.613281 55.574219 C 76.210938 58.0625 77.8125 60.238281 79.3125 63.3125 C 81.5 67.789062 82.351562 71.75 83.425781 82.375 C 83.914062 87.136719 84.550781 95.773438 84.6875 99.3125 C 84.726562 100.335938 84.8125 102.023438 84.886719 103.0625 C 85.023438 105.261719 85.1875 104.960938 83.25 105.898438 C 80.5625 107.199219 77.976562 108.101562 74.5625 108.9375 C 70.386719 109.960938 67.6875 110.289062 63.5625 110.300781 L 60.5625 110.3125 L 60.585938 108.875 C 60.585938 108.085938 60.664062 106.25 60.738281 104.8125 C 61.113281 97.851562 61.039062 89.0625 60.550781 84.1875 C 60.273438 81.386719 59.738281 77.988281 59.4375 77.238281 C 59.375 77.074219 59.664062 76.9375 60.898438 76.511719 C 63.164062 75.726562 65.125 74.738281 65.425781 74.25 C 65.960938 73.324219 65 72 63.773438 72 C 63.5625 72 62.925781 72.226562 62.335938 72.488281 C 59.539062 73.773438 53.925781 75.289062 50.6875 75.625 C 48.449219 75.863281 44.976562 75.726562 42.5625 75.289062 C 41.25 75.050781 38.898438 74.164062 36.9375 73.148438 C 34.675781 71.976562 33.289062 70.414062 32.875 68.5625 C 32.648438 67.5625 32.710938 65.5625 33 64.4375 C 33.3125 63.199219 34.1875 61.398438 34.988281 60.351562 C 38.550781 55.664062 45.898438 51.601562 53.4375 50.175781 C 55.835938 49.726562 59.238281 49.675781 61.8125 50.0625 Z M 100.375 50.449219 C 100.824219 50.636719 100.875 50.6875 100.875 51.113281 C 100.898438 54.523438 100.824219 62.324219 100.761719 62.648438 C 100.75 62.761719 100.101562 62.773438 99.824219 62.675781 C 99.648438 62.613281 99.625 61.9375 99.625 56.425781 C 99.625 52.476562 99.675781 50.25 99.75 50.25 C 99.8125 50.25 100.101562 50.335938 100.375 50.449219 Z M 105.835938 57.3125 L 106.289062 57.5 L 106.199219 67.851562 C 106.101562 81.039062 106.085938 81.425781 105.613281 82.5625 C 104.835938 84.425781 104.875 84.800781 104.949219 76.625 C 104.976562 72.539062 105.039062 68.398438 105.0625 67.4375 C 105.085938 66.476562 105.113281 63.761719 105.125 61.398438 C 105.125 58.550781 105.164062 57.125 105.25 57.125 C 105.324219 57.125 105.585938 57.210938 105.835938 57.3125 Z M 30.664062 60.425781 C 30.738281 61.4375 30.710938 61.539062 30.351562 62.335938 L 29.949219 63.1875 L 29.800781 61.9375 C 29.5625 59.9375 29.5625 59.851562 30.039062 59.550781 C 30.25 59.398438 30.476562 59.300781 30.511719 59.324219 C 30.550781 59.351562 30.625 59.851562 30.664062 60.425781 Z M 22.9375 67.960938 C 23.050781 68.988281 23.925781 75.789062 24.375 79.125 C 25.050781 84.289062 25.101562 85.023438 24.800781 84.710938 C 24.761719 84.675781 24.476562 82.9375 24.175781 80.851562 C 22.226562 67.375 22.238281 67.460938 22.398438 67.363281 C 22.738281 67.136719 22.851562 67.261719 22.9375 67.960938 Z M 31.9375 73.6875 C 32.011719 74 32.375 77.386719 32.375 77.800781 C 32.375 78.148438 31.925781 78.476562 31.726562 78.273438 C 31.664062 78.210938 31.5 77.148438 31.375 75.925781 C 31.238281 74.6875 31.101562 73.398438 31.0625 73.0625 L 30.988281 72.4375 L 31.425781 72.9375 C 31.675781 73.210938 31.898438 73.550781 31.9375 73.6875 Z M 42.023438 78.398438 C 42.164062 78.523438 42.25 79.023438 42.363281 80.375 C 42.550781 82.8125 42.574219 82.625 42.0625 82.625 C 41.539062 82.625 41.550781 82.664062 41.375 80.460938 C 41.199219 78.226562 41.199219 78.25 41.539062 78.25 C 41.699219 78.25 41.914062 78.324219 42.023438 78.398438 Z M 51.925781 78.585938 C 51.949219 78.710938 52.011719 79.460938 52.0625 80.25 C 52.101562 81.039062 52.210938 82.8125 52.3125 84.1875 C 52.664062 89.238281 52.675781 89.875 52.460938 89.875 C 52.226562 89.875 52.199219 89.6875 51.925781 86.125 C 51.824219 84.648438 51.636719 82.324219 51.511719 80.960938 C 51.398438 79.601562 51.324219 78.460938 51.363281 78.4375 C 51.5 78.289062 51.863281 78.398438 51.925781 78.585938 Z M 28.425781 80.988281 C 28.5 81.101562 28.976562 85.101562 29.5625 90.5625 C 29.738281 92.210938 29.914062 93.800781 29.949219 94.101562 L 30.011719 94.636719 L 29.699219 94.4375 C 29.460938 94.273438 29.375 94.113281 29.375 93.824219 C 29.375 93.039062 28.835938 87.851562 28.425781 84.675781 C 28.1875 82.875 28 81.289062 28 81.136719 C 28 80.875 28.300781 80.773438 28.425781 80.988281 Z M 100.5625 86.210938 L 100.476562 91.4375 L 100.164062 91.898438 C 99.449219 92.949219 99.488281 93.148438 99.523438 87.300781 L 99.550781 81.9375 L 100.011719 81.460938 C 100.261719 81.210938 100.511719 81 100.5625 81 C 100.601562 81 100.601562 83.351562 100.5625 86.210938 Z M 89 94.5 C 89.0625 101.761719 89.050781 102.324219 88.851562 102.550781 C 88.726562 102.6875 88.613281 102.773438 88.574219 102.738281 C 88.488281 102.636719 88.363281 86.800781 88.460938 86.710938 C 88.511719 86.664062 88.636719 86.636719 88.75 86.648438 C 88.914062 86.6875 88.949219 87.574219 89 94.5 Z M 48.175781 89.523438 C 48.261719 90.300781 48.574219 94.011719 48.699219 95.761719 C 48.773438 96.9375 48.773438 96.976562 48.5 97.0625 C 48.351562 97.113281 48.175781 97.101562 48.125 97.039062 C 48.039062 96.949219 47.761719 94.175781 47.425781 89.898438 L 47.335938 88.875 L 47.726562 88.875 C 48.085938 88.875 48.113281 88.898438 48.175781 89.523438 Z M 38.351562 93.898438 C 38.4375 93.988281 38.5 94.300781 38.5 94.613281 C 38.5 94.9375 38.648438 96.625 38.8125 98.375 C 39.289062 103.164062 39.324219 103.8125 39.113281 103.6875 C 38.789062 103.5 38.5 103.210938 38.5625 103.136719 C 38.585938 103.085938 38.539062 102.460938 38.4375 101.75 C 38.351562 101.023438 38.238281 99.851562 38.1875 99.125 C 38.136719 98.398438 38.023438 97.074219 37.925781 96.1875 C 37.6875 94 37.699219 93.75 37.976562 93.75 C 38.101562 93.75 38.261719 93.8125 38.351562 93.898438 Z M 44.261719 102.3125 C 44.300781 102.585938 44.375 103.613281 44.425781 104.585938 C 44.511719 106.460938 44.476562 106.601562 43.960938 106.210938 C 43.8125 106.101562 43.710938 105.625 43.5625 104.199219 C 43.300781 101.625 43.289062 101.726562 43.773438 101.773438 C 44.136719 101.8125 44.1875 101.863281 44.261719 102.3125 Z M 44.261719 102.3125 "/>
<path style=" stroke:none;fill-rule:nonzero;fill:rgb(255%,255%,255%);fill-opacity:1;" d="M 39.800781 56.050781 C 38.5 56.613281 38.398438 58.375 39.625 59 C 40.511719 59.449219 41.414062 59.238281 41.875 58.460938 C 42.75 57.039062 41.324219 55.386719 39.800781 56.050781 Z M 39.800781 56.050781 "/>
<path style=" stroke:none;fill-rule:nonzero;fill:rgb(255%,255%,255%);fill-opacity:1;" d="M 48.273438 57.25 C 47.074219 57.988281 47.074219 59.761719 48.273438 60.5 C 49.460938 61.210938 51 60.273438 51 58.851562 C 51 57.476562 49.425781 56.550781 48.273438 57.25 Z M 48.273438 57.25 "/>
</g>
</svg>
